<?xml version="1.0" encoding="UTF-8" standalone="no"?>
<!-- Created with Inkscape (http://www.inkscape.org/) -->

<svg
   xmlns:dc="http://purl.org/dc/elements/1.1/"
   xmlns:cc="http://creativecommons.org/ns#"
   xmlns:rdf="http://www.w3.org/1999/02/22-rdf-syntax-ns#"
   xmlns:svg="http://www.w3.org/2000/svg"
   xmlns="http://www.w3.org/2000/svg"
   xmlns:sodipodi="http://sodipodi.sourceforge.net/DTD/sodipodi-0.dtd"
   xmlns:inkscape="http://www.inkscape.org/namespaces/inkscape"
   width="1187.5018"
   height="678.17462"
   viewBox="0 0 314.19319 179.43371"
   version="1.1"
   id="svg8"
   inkscape:version="0.92.3 (2405546, 2018-03-11)"
   sodipodi:docname="mock-map.svg">
  <defs
     id="defs2" />
  <sodipodi:namedview
     id="base"
     pagecolor="#ffffff"
     bordercolor="#666666"
     borderopacity="1.0"
     inkscape:pageopacity="0.0"
     inkscape:pageshadow="2"
     inkscape:zoom="0.42457159"
     inkscape:cx="708.47232"
     inkscape:cy="187.71968"
     inkscape:document-units="px"
     inkscape:current-layer="layer1"
     showgrid="false"
     inkscape:object-paths="true"
     inkscape:window-width="1600"
     inkscape:window-height="874"
     inkscape:window-x="0"
     inkscape:window-y="0"
     inkscape:window-maximized="1"
     units="px"
     fit-margin-top="0"
     fit-margin-left="0"
     fit-margin-right="0"
     fit-margin-bottom="0" />
  <metadata
     id="metadata5">
    <rdf:RDF>
      <cc:Work
         rdf:about="">
        <dc:format>image/svg+xml</dc:format>
        <dc:type
           rdf:resource="http://purl.org/dc/dcmitype/StillImage" />
        <dc:title></dc:title>
      </cc:Work>
    </rdf:RDF>
  </metadata>
  <g
     inkscape:label="Layer 1"
     inkscape:groupmode="layer"
     id="layer1"
     transform="translate(0,-117.56629)">
    <path
       style="fill:#1432e8;fill-opacity:1;stroke:#fffff3;stroke-width:1.32291663;stroke-linecap:butt;stroke-linejoin:miter;stroke-miterlimit:4;stroke-dasharray:none;stroke-opacity:1"
       d="M 0.66334742,183.44437 14.103258,174.85164 h 7.491098 v 11.45697 l 10.35534,0.44065 1.101632,35.0319 -11.236646,-0.66098 0.220327,12.77893 H 14.103258 L 0.88367383,225.74704 Z"
       id="path829"
       inkscape:connector-curvature="0" />
    <path
       style="fill:#1432e8;fill-opacity:1;stroke:#fffff3;stroke-width:1.32291663;stroke-linecap:butt;stroke-linejoin:miter;stroke-miterlimit:4;stroke-dasharray:none;stroke-opacity:1"
       d="m 30.187084,179.47849 c 3.304897,-0.88131 34.591246,0 34.591246,0 l 0.440653,-38.33679 -25.557863,-0.88131 -9.253709,8.3724 z"
       id="path833"
       inkscape:connector-curvature="0" />
    <path
       style="fill:#1432e8;fill-opacity:1;stroke:#fffff3;stroke-width:1.32291663;stroke-linecap:butt;stroke-linejoin:miter;stroke-miterlimit:4;stroke-dasharray:none;stroke-opacity:1"
       d="m 73.591387,183.00371 -7.270771,6.6098 0.660979,31.727 h 19.609051 l -0.220326,-33.93027 -4.847183,-4.84718 z"
       id="path835"
       inkscape:connector-curvature="0" />
    <path
       style="fill:#1432e8;fill-opacity:1;stroke:#fffff3;stroke-width:1.32291663;stroke-linecap:butt;stroke-linejoin:miter;stroke-miterlimit:4;stroke-dasharray:none;stroke-opacity:1"
       d="m 29.96676,231.69585 c 0.881304,3.96587 -0.220326,30.8457 -0.220326,30.8457 l 9.253707,7.71141 26.218842,0.22034 -0.220326,-38.77745 z"
       id="path837"
       inkscape:connector-curvature="0" />
    <path
       style="fill:#1432e8;fill-opacity:1;stroke:#fffff3;stroke-width:1.32291663;stroke-linecap:butt;stroke-linejoin:miter;stroke-miterlimit:4;stroke-dasharray:none;stroke-opacity:1"
       d="m 91.2175,169.34348 v 33.04896 l 6.389465,7.93175 37.896145,0.22032 0.66098,-9.47403 -12.99926,-12.77893 -0.22033,-18.94807 z"
       id="path839"
       inkscape:connector-curvature="0" />
    <path
       style="fill:#1432e8;fill-opacity:1;stroke:#fffff3;stroke-width:1.32291663;stroke-linecap:butt;stroke-linejoin:miter;stroke-miterlimit:4;stroke-dasharray:none;stroke-opacity:1"
       d="m 97.827291,258.57567 c 4.406529,-0.8813 21.371669,0.66098 21.371669,0.66098 l 7.93175,-8.59273 -0.44066,-13.43991 9.03339,-9.47404 v -10.13501 l -37.455496,0.66098 z"
       id="path841"
       inkscape:connector-curvature="0" />
    <path
       style="fill:#1432e8;fill-opacity:1;stroke:#fffff3;stroke-width:1.32291663;stroke-linecap:butt;stroke-linejoin:miter;stroke-miterlimit:4;stroke-dasharray:none;stroke-opacity:1"
       d="m 142.1129,118.22775 -14.76187,14.76187 0.22033,49.57344 18.72775,18.28709 h 45.60756 l 18.06677,-19.38872 c 0,0 0.66098,-40.76039 0.22032,-42.30267 -0.44065,-1.54229 -20.71068,-20.93101 -20.71068,-20.93101 z"
       id="path843"
       inkscape:connector-curvature="0" />
    <path
       style="fill:#1432e8;fill-opacity:1;stroke:#fffff3;stroke-width:1.32291663;stroke-linecap:butt;stroke-linejoin:miter;stroke-miterlimit:4;stroke-dasharray:none;stroke-opacity:1"
       d="m 181.331,228.61128 h -34.15059 l -11.01632,11.45697 -0.44065,40.54005 15.64317,15.6432 c 0,0 29.74407,0.44064 29.74407,-0.66098 0,-1.10165 0.22032,-66.97924 0.22032,-66.97924 z"
       id="path845"
       inkscape:connector-curvature="0" />
    <path
       style="fill:#1432e8;fill-opacity:1;stroke:#fffff3;stroke-width:1.32291663;stroke-linecap:butt;stroke-linejoin:miter;stroke-miterlimit:4;stroke-dasharray:none;stroke-opacity:1"
       d="m 184.19525,266.72775 -0.22033,21.59199 7.93175,7.4911 21.81232,0.22031 7.05044,-7.71141 1.10163,-21.15134 z"
       id="path847"
       inkscape:connector-curvature="0" />
    <path
       style="fill:#1432e8;fill-opacity:1;stroke:#fffff3;stroke-width:1.32291663;stroke-linecap:butt;stroke-linejoin:miter;stroke-miterlimit:4;stroke-dasharray:none;stroke-opacity:1"
       d="m 224.95563,277.0831 c 0.44065,-1.98295 -1.98294,-30.18473 -0.66098,-30.84571 1.32196,-0.66098 8.15208,-7.71142 8.15208,-7.71142 l 26.21884,-0.22033 0.66098,23.3546 -16.08383,14.9822 z"
       id="path849"
       inkscape:connector-curvature="0" />
    <path
       style="fill:#1432e8;fill-opacity:1;stroke:#fffff3;stroke-width:1.32291663;stroke-linecap:butt;stroke-linejoin:miter;stroke-miterlimit:4;stroke-dasharray:none;stroke-opacity:1"
       d="m 187.9408,242.9325 c 3.96587,-0.44066 30.18471,0.44065 30.18471,0.44065 l 7.05045,-6.83012 -0.44065,-25.99852 -36.79451,-0.66097 z"
       id="path851"
       inkscape:connector-curvature="0" />
    <path
       style="fill:#1432e8;fill-opacity:1;stroke:#fffff3;stroke-width:1.32291663;stroke-linecap:butt;stroke-linejoin:miter;stroke-miterlimit:4;stroke-dasharray:none;stroke-opacity:1"
       d="m 203.14332,203.7144 c -0.22033,-0.88131 0,-9.69437 0,-9.69437 l 11.6773,-12.77893 -0.22033,-1.76261 15.20252,0.66098 0.66098,24.89688 z"
       id="path853"
       inkscape:connector-curvature="0" />
    <path
       style="fill:#1432e8;fill-opacity:1;stroke:#fffff3;stroke-width:1.32291663;stroke-linecap:butt;stroke-linejoin:miter;stroke-miterlimit:4;stroke-dasharray:none;stroke-opacity:1"
       d="m 287.30801,216.49333 c 0,0 13.21959,0.8813 14.10089,0.22032 0.8813,-0.66097 12.11794,-9.69436 12.11794,-9.69436 l -0.22032,-14.32121 -11.45696,-10.35535 c 0,0 -14.76187,-1.54228 -14.76187,-0.44065 0,1.10163 0.22032,34.59125 0.22032,34.59125 z"
       id="path855"
       inkscape:connector-curvature="0" />
    <path
       style="fill:#1432e8;fill-opacity:1;stroke:#fffff3;stroke-width:1.32291663;stroke-linecap:butt;stroke-linejoin:miter;stroke-miterlimit:4;stroke-dasharray:none;stroke-opacity:1"
       d="m 232.88738,173.52968 c 2.42359,-0.88131 25.99852,0.44065 25.99852,0.44065 l 0.8813,-23.3546 -16.30415,-14.76187 -18.28709,-0.22032 -0.66098,31.06602 z"
       id="path857"
       inkscape:connector-curvature="0" />
    <path
       style="fill:#afb6ec;fill-opacity:1;stroke:#ffffff;stroke-width:1.32291663;stroke-linecap:butt;stroke-linejoin:miter;stroke-miterlimit:4;stroke-dasharray:none;stroke-opacity:1"
       d="m 32.295996,197.76162 c -0.01297,-0.41253 10.449695,0.66494 10.890348,-0.21636 0.440653,-0.88131 -0.222827,-18.45229 -0.222827,-18.45229 l 12.556672,0.169 0.0044,18.06296 10.933449,-1.11368 0.344683,16.54484 -10.837479,-0.66929 -0.220326,19.60905 H 42.745704 l 1.101632,-19.82938 -11.094061,0.43617 z"
       id="path859"
       inkscape:connector-curvature="0" />
    <path
       style="fill:#afb6ec;fill-opacity:1;stroke:#ffffff;stroke-width:1.32291663;stroke-linecap:butt;stroke-linejoin:miter;stroke-miterlimit:4;stroke-dasharray:none;stroke-opacity:1"
       d="m 65.061239,242.71056 c -0.0013,-0.21531 24.393649,-1.54067 25.054628,0.44226 0.66098,1.98294 1.321959,20.49036 1.321959,20.49036 0,0 5.948815,5.06751 6.169139,0 0.220324,-5.06751 0.220324,-5.06751 0.220324,-5.06751 l 12.790441,0.0264 -0.89281,5.92242 26.17814,-0.4411 -0.17962,16.52491 c 0,0 -57.064544,-0.66095 -57.064544,-1.7626 0,-1.10162 0,-20.27003 0,-20.27003 l -13.505,0.44228 z"
       id="path861"
       inkscape:connector-curvature="0" />
    <path
       style="fill:#afb6ec;fill-opacity:1;stroke:#ffffff;stroke-width:1.32291663;stroke-linecap:butt;stroke-linejoin:miter;stroke-miterlimit:4;stroke-dasharray:none;stroke-opacity:1"
       d="m 161.94228,228.61128 -0.22033,-27.76113 h 12.77893 l 0.22033,9.25371 13.21959,-0.22032 v 15.20252 l -13.43992,-0.22033 v 3.74555 z"
       id="path863"
       inkscape:connector-curvature="0"
       sodipodi:nodetypes="ccccccccc" />
    <path
       style="fill:#afb6ec;fill-opacity:1;stroke:#ffffff;stroke-width:1.32291663;stroke-linecap:butt;stroke-linejoin:miter;stroke-miterlimit:4;stroke-dasharray:none;stroke-opacity:1"
       d="m 64.945481,164.93634 34.948323,-0.22002 0.136756,4.62716 h 13.21959 l -0.44066,-4.84718 14.68352,0.43806 -0.0695,-15.63895 -62.298179,-0.005 z"
       id="path865"
       inkscape:connector-curvature="0"
       sodipodi:nodetypes="ccccccccc" />
    <path
       style="fill:#afb6ec;fill-opacity:1;stroke:#ffffff;stroke-width:1.32291663;stroke-linecap:butt;stroke-linejoin:miter;stroke-miterlimit:4;stroke-dasharray:none;stroke-opacity:1"
       d="m 210.21097,164.27875 14.34636,0.43036 0.32323,-15.19192 -14.53894,-0.88462 z"
       id="path867"
       inkscape:connector-curvature="0"
       sodipodi:nodetypes="ccccc" />
    <path
       style="fill:#afb6ec;fill-opacity:1;stroke:#ffffff;stroke-width:1.32291663;stroke-linecap:butt;stroke-linejoin:miter;stroke-miterlimit:4;stroke-dasharray:none;stroke-opacity:1"
       d="m 266.37701,182.12241 -17.18547,-0.44065 0.41378,-8.15468 -12.31333,-0.29826 -0.65906,8.45333 -6.78553,0.13686 0.40565,15.27989 23.78567,-0.21423 0.44065,7.05045 -17.84644,0.66098 -0.017,33.89483 13.45571,-0.11268 -0.88006,-19.46094 17.40578,0.22033 c 0,0 -1.10164,-11.89762 0.22032,-12.33828 1.32197,-0.44065 20.42547,-0.2199 20.42547,-0.2199 l -0.0968,-14.98299 -20.549,-0.44028 z"
       id="path869"
       inkscape:connector-curvature="0"
       sodipodi:nodetypes="ccccccccccccccccccc" />
    <path
       style="fill:#afb6ec;fill-opacity:1;stroke:#ffffff;stroke-width:1.32291663;stroke-linecap:butt;stroke-linejoin:miter;stroke-miterlimit:4;stroke-dasharray:none;stroke-opacity:1"
       d="m 181.26928,247.11327 42.70942,0.34511 0.35558,14.45837 -7.11686,0.30895 0.47028,4.89377 -13.09222,-0.15313 0.31419,-4.74064 -23.69114,0.15679 z"
       id="path890"
       inkscape:connector-curvature="0" />
  </g>
</svg>
